# xmcd CD database file
#
# Track frame offsets:
#	150
#	12332
#	29019
#	40487
#	55717
#	66715
#	76820
#	105102
#	132117
#	153472
#
# Disc length: 2140 seconds
#
# Revision: 0
# Processed by: cddbd v1.5.2PL0 Copyright (c) Steve Scherf et al.
# Submitted via: CDex 1.70beta2
#
DISCID=7d085a0a
DTITLE=Verschiedene Interpreten - Abraham
DYEAR=1993
DGENRE=Hörspiel
TTITLE0=Denkt einmal darüber nach...
TTITLE1=Geh, Abraham, geh
TTITLE2=Neffe Lot
TTITLE3=Leihmutter Hagar
TTITLE4=Höchster Besuch
TTITLE5=Wie viele Gerechte in der Stadt?
TTITLE6=Pech und Schwefel über Sodom!
TTITLE7=Ismaels Vertreibung
TTITLE8=Das Opfer auf dem berg Moria
TTITLE9=Vorbild und Vater vieler Völker
EXTD=YEAR: 1993
EXTT0=
EXTT1=
EXTT2=
EXTT3=
EXTT4=
EXTT5=
EXTT6=
EXTT7=
EXTT8=
EXTT9=
PLAYORDER=
